<?xml version="1.0" encoding="utf-8"?>
<!-- Generator: Adobe Illustrator 24.0.1, SVG Export Plug-In . SVG Version: 6.00 Build 0)  -->
<svg version="1.1" id="Layer_1" xmlns="http://www.w3.org/2000/svg" xmlns:xlink="http://www.w3.org/1999/xlink" x="0px" y="0px"
	 viewBox="0 0 612 96" style="enable-background:new 0 0 612 96;" xml:space="preserve">
<style type="text/css">
	.st0{fill:none;stroke:#EFB04B;stroke-width:2;}
</style>
<g>
	<path class="st0" d="M80.72,44.92c9.11,9.17-0.09,24.72-7.77,31.38c-8.46,7.33-22.42,14.53-33.87,11.01
		c-10.52-3.23-14.62-15.55-5.62-23.02c1.02-0.85,4.46-0.53,2.87,0.8c-10.84,9.01-0.03,21.63,11.4,20.74
		c9.66-0.76,20.38-7.16,26.52-14.51c4.91-5.86,9.82-17.52,3.87-24.3c-1.26,1.49-2.49,2.69-3.47,3.44c-3.61,2.74-9.3,5.94-13.99,4.79
		c-2.39-0.59-3.66-2.15-3.81-4.04c-2.95,10.18-8.17,23.22-14.39,20.53c-6.4-2.77,2.13-20.09,13.63-32.8
		c0.23-2.13,0.31-4.27,0.07-6.41c-0.11-0.73-0.21-1.46-0.32-2.19c-0.45-3.56-3.26-3.43-8.43,0.39c-0.78,1.06-4.33,1.16-3.3-0.23
		c2.43-3.3,6.49-6.18,10.85-5.38c4.39,0.81,5.18,5.44,5.02,9.82c7.18-6.85,14.97-11.29,20.8-9.24c7.89,2.78,4.1,12.12-0.63,18.71
		C80.33,44.58,80.54,44.74,80.72,44.92z M51.89,55.03c1.31-3.63,2.52-7.31,3.34-11.09c-2.98,3.67-5.67,7.58-7.84,11.59
		c-0.69,1.27-5.73,14.24-2.47,13.49C47.77,68.38,51.19,56.99,51.89,55.03z M77.98,42.91c0.03-0.04,0.05-0.08,0.08-0.12
		c2.27-3.67,6.4-12.22,0.38-14.7c-0.98-0.4-2.06-0.49-3.12-0.38c-4.46,0.43-9.29,4.99-12.42,7.95c-1.12,1.06-2.22,2.18-3.3,3.32
		c-0.08,0.6-0.17,1.18-0.24,1.69c-0.18,1.16-0.7,3.71-1.51,6.88C61.65,41.27,71.54,39.42,77.98,42.91z M76.24,45.36
		c-3.25-2.24-7.7-2.47-11.19-0.69c-5.96,3.03-5.91,9.16,2.06,7.48C70.48,51.43,73.86,48.37,76.24,45.36z"/>
	<path class="st0" d="M112.54,53.88c0.26-0.18,0.53-0.35,0.84-0.44c0.31-0.08,0.66-0.06,0.91,0.13c0.35,0.26,0.41,0.78,0.27,1.19
		c-0.38,1.06-1.71,1.77-2.55,2.44c-1.18,0.93-2.45,1.73-3.85,2.29c-2.24,0.89-4.69,1.33-7.1,1.35c-0.81,0.01-1.84-0.05-2.87-0.25
		c-0.07,0.16-0.13,0.3-0.19,0.44c-1.37,3.22-4.06,8-7.89,8.77c-3.04,0.61-4.59-1.22-4.58-4.13c0.02-3.31,1.73-6.82,3.66-9.42
		c1.89-2.55,5-5.12,8.34-3.69c1,0.43,1.7,1.38,1.98,2.42c0.14,0.55,0.17,1.12,0.08,1.68c-0.05,0.3-0.13,0.59-0.25,0.87
		c-0.12,0.28-0.23,0.09-0.04,0.39c0.51,0.8,2.04,0.83,2.84,0.68c1.11,0.08,2.18-0.09,3.21-0.52c1.27-0.53,2.67-0.89,3.85-1.63
		c0.56-0.35,1.08-0.77,1.6-1.2C111.37,54.78,111.94,54.29,112.54,53.88z M95.3,59.51c-1.01-0.68-1.66-1.67-1.49-3.14
		c0.08-0.65,0.4-1.26,0.87-1.74c-3.76,0.41-8.09,13-3.71,12.17C92.16,66.58,94.32,62.68,95.3,59.51z"/>
	<path class="st0" d="M143.56,54.03c2.18,0.2-0.73,3.08-1.13,3.51c-1.62,1.74-2.97,3.77-4.57,5.54c-1.86,2.06-4.39,5.7-7.24,6.26
		c-6.95,1.35-3.71-9.93-2.51-12.93c0.46-1.14,0.92-2.31,0.96-3.53c-1.75,1.44-3.12,3.19-4.54,4.93c-1.67,2.05-3.29,4.13-4.94,6.19
		c-1.05,1.31-2.12,2.64-3.54,3.55c-1.11,0.71-3.67,1.67-4.77,0.5c-1.01-1.08-0.11-3.33,0.04-4.55c0.51-4.05,1.3-8.03,2.27-11.99
		c0.32-1.32,3.87-1.82,3.52-0.38c-0.42,1.72-2.97,10.17-2.86,13.94c2.17-2.06,4.14-4.96,5.95-6.9c1.92-2.06,7.76-11.4,11.44-7.65
		c0.65,0.67,0.88,1.66,0.78,2.59c-0.14,1.26-4.65,13.97-1.6,13.36c0.68-0.14,1.2-0.68,1.68-1.19c1.67-1.81,3.34-3.61,5-5.43
		c1.26-1.39,2.18-3.33,3.7-4.47c0.13-0.14,0.27-0.29,0.42-0.42C142.16,54.41,142.81,53.96,143.56,54.03z"/>
	<path class="st0" d="M171.28,54.03c2.18,0.2-0.73,3.08-1.13,3.51c-1.62,1.74-2.97,3.77-4.57,5.54c-1.86,2.06-4.39,5.7-7.24,6.26
		c-6.95,1.35-3.71-9.93-2.51-12.93c0.46-1.14,0.92-2.31,0.96-3.53c-1.75,1.44-3.12,3.19-4.54,4.93c-1.67,2.05-3.29,4.13-4.94,6.19
		c-1.05,1.31-2.12,2.64-3.54,3.55c-1.11,0.71-3.67,1.67-4.77,0.5c-1.01-1.08-0.11-3.33,0.04-4.55c0.51-4.05,1.3-8.03,2.27-11.99
		c0.32-1.32,3.87-1.82,3.52-0.38c-0.42,1.72-2.97,10.17-2.86,13.94c2.17-2.06,4.14-4.96,5.95-6.9c1.92-2.06,7.76-11.4,11.44-7.65
		c0.65,0.67,0.88,1.66,0.78,2.59c-0.14,1.26-4.65,13.97-1.6,13.36c0.68-0.14,1.2-0.68,1.68-1.19c1.67-1.81,3.34-3.61,5-5.43
		c1.26-1.39,2.18-3.33,3.7-4.47c0.13-0.14,0.27-0.29,0.42-0.42C169.87,54.41,170.53,53.96,171.28,54.03z"/>
	<path class="st0" d="M198.94,53.46c0.28,1.05-2.11,2.13-2.73,2.58c-3.92,2.82-6.95,6.7-10.57,9.87c-1.99,1.74-4.19,3.32-6.71,4.12
		c-2.52,0.8-5.41,0.74-7.66-0.64c-4.64-2.84-3.71-9.87-1.62-13.97c1.29-2.55,3.15-4.95,5.74-6.13s6.04-0.83,7.84,1.38
		c0.45,0.55,0.79,1.21,0.86,1.91c0.09,0.87-0.22,1.72-0.59,2.51c-2.18,4.64-6.34,8.05-11.54,8.39c0.61,2.52,2.68,4.38,6.03,3.83
		c2.79-0.46,5.88-3.89,8.04-5.59c1.81-1.43,8.04-7.2,10-8.42C196.56,52.97,198.7,52.53,198.94,53.46z M171.77,61.87
		c0.38-0.2,0.79-0.35,1.13-0.36c2.46-0.06,4.71-2.89,5.93-4.74c0.59-0.9,1.1-1.91,1.13-2.98c0.02-0.72-0.27-1.54-0.95-1.77
		c-0.77-0.26-1.53,0.36-2.11,0.92c-1.01,0.99-2.03,2-2.85,3.16c-0.65,0.93-1.29,1.97-1.72,3.08
		C171.99,60.06,171.77,60.96,171.77,61.87z"/>
	<path class="st0" d="M255.1,55.16c0.06,0.38-0.05,0.77-0.2,1.12c-0.36,0.87-0.88,1.16-1.49,1.77c-0.76,0.76-1.36,1.73-2.01,2.59
		c-2.25,2.96-11.03,15.14-15.37,8.99c-1.59-2.26-1.48-5.23-0.89-7.8c-2.61,3.07-5.53,5.91-8.87,7.22c-3.67,1.44-7.3,0.04-7.3-4.37
		c0-8.43,13.21-18.67,20.22-11.69c0.29,0.29,1.3-0.49,1.79,0.16c0.8,1.08-0.39,2.96-0.83,4c-0.81,1.92-1.52,3.83-1.92,5.89
		c-0.56,2.93,0.29,5.66,3.43,3.75c2.53-1.53,4.61-3.7,6.5-5.95c1.65-1.97,3.21-3.97,4.97-5.84c0.34-0.36,0.76-0.74,1.24-0.67
		C254.77,54.41,255.04,54.78,255.1,55.16z M230.91,63.4c1.54-1.3,6.3-5.68,5.86-7.99c-0.41-2.12-4.03-2.51-5.6-2.06
		c-3.93,1.14-7.8,6.03-8.36,10.04c-0.07,0.51-0.1,1.05,0.1,1.52c1.11,2.64,5.05,0.59,7.12-0.85
		C230.38,63.82,230.68,63.58,230.91,63.4z"/>
	<path class="st0" d="M284.51,54.03c2.18,0.2-0.73,3.08-1.13,3.51c-1.62,1.74-2.97,3.77-4.57,5.54c-1.86,2.06-4.39,5.7-7.24,6.26
		c-6.95,1.35-3.71-9.93-2.51-12.93c0.46-1.14,0.92-2.31,0.96-3.53c-1.75,1.44-3.12,3.19-4.54,4.93c-1.67,2.05-3.29,4.13-4.94,6.19
		c-1.05,1.31-2.12,2.64-3.54,3.55c-1.11,0.71-3.67,1.67-4.77,0.5c-1.01-1.08-0.11-3.33,0.04-4.55c0.51-4.05,1.3-8.03,2.27-11.99
		c0.32-1.32,3.87-1.82,3.52-0.38c-0.42,1.72-2.97,10.17-2.86,13.94c2.17-2.06,4.14-4.96,5.95-6.9c1.92-2.06,7.76-11.4,11.44-7.65
		c0.65,0.67,0.88,1.66,0.78,2.59c-0.14,1.26-4.65,13.97-1.6,13.36c0.68-0.14,1.2-0.68,1.68-1.19c1.67-1.81,3.34-3.61,5-5.43
		c1.26-1.39,2.18-3.33,3.7-4.47c0.13-0.14,0.27-0.29,0.42-0.42C283.11,54.41,283.76,53.96,284.51,54.03z"/>
	<path class="st0" d="M312.23,54.03c2.18,0.2-0.73,3.08-1.13,3.51c-1.62,1.74-2.97,3.77-4.57,5.54c-1.86,2.06-4.39,5.7-7.24,6.26
		c-6.95,1.35-3.71-9.93-2.51-12.93c0.46-1.14,0.92-2.31,0.96-3.53c-1.75,1.44-3.12,3.19-4.54,4.93c-1.67,2.05-3.29,4.13-4.94,6.19
		c-1.05,1.31-2.12,2.64-3.54,3.55c-1.11,0.71-3.67,1.67-4.77,0.5c-1.01-1.08-0.11-3.33,0.04-4.55c0.51-4.05,1.3-8.03,2.27-11.99
		c0.32-1.32,3.87-1.82,3.52-0.38c-0.42,1.72-2.97,10.17-2.86,13.94c2.17-2.06,4.14-4.96,5.95-6.9c1.92-2.06,7.76-11.4,11.44-7.65
		c0.65,0.67,0.88,1.66,0.78,2.59c-0.14,1.26-4.65,13.97-1.6,13.36c0.68-0.14,1.2-0.68,1.68-1.19c1.67-1.81,3.34-3.61,5-5.43
		c1.26-1.39,2.18-3.33,3.7-4.47c0.13-0.14,0.27-0.29,0.42-0.42C310.82,54.41,311.48,53.96,312.23,54.03z"/>
	<path class="st0" d="M339.89,53.46c0.28,1.05-2.11,2.13-2.73,2.58c-3.92,2.82-6.95,6.7-10.57,9.87c-1.99,1.74-4.19,3.32-6.71,4.12
		c-2.52,0.8-5.41,0.74-7.66-0.64c-4.64-2.84-3.71-9.87-1.62-13.97c1.29-2.55,3.15-4.95,5.74-6.13c2.6-1.18,6.04-0.83,7.84,1.38
		c0.45,0.55,0.79,1.21,0.86,1.91c0.09,0.87-0.22,1.72-0.59,2.51c-2.18,4.64-6.34,8.05-11.54,8.39c0.61,2.52,2.68,4.38,6.03,3.83
		c2.79-0.46,5.88-3.89,8.04-5.59c1.81-1.43,8.04-7.2,10-8.42C337.51,52.97,339.65,52.53,339.89,53.46z M312.86,43.35
		c-1.36-1.51,6.4-4.76,7.57-5.29c0.48-0.21,1.11-0.4,1.46-0.01c0.26,0.3,0.17,0.78-0.08,1.08c-0.25,0.3-0.62,0.47-0.98,0.64
		c-1.68,0.82-3.24,1.91-4.87,2.84c-0.41,0.24-1,0.68-1.59,0.93C313.82,43.76,313.27,43.81,312.86,43.35z M312.72,61.87
		c0.38-0.2,0.79-0.35,1.13-0.36c2.46-0.06,4.71-2.89,5.93-4.74c0.59-0.9,1.1-1.91,1.13-2.98c0.02-0.72-0.27-1.54-0.95-1.77
		c-0.77-0.26-1.53,0.36-2.11,0.92c-1.01,0.99-2.03,1.99-2.85,3.16c-0.65,0.93-1.29,1.97-1.72,3.08
		C312.94,60.06,312.72,60.96,312.72,61.87z"/>
	<path class="st0" d="M366.76,53.46c0.28,1.05-2.11,2.13-2.73,2.58c-3.92,2.82-6.95,6.7-10.57,9.87c-1.99,1.74-4.19,3.32-6.71,4.12
		c-2.52,0.8-5.41,0.74-7.66-0.64c-4.64-2.84-3.71-9.87-1.62-13.97c1.29-2.55,3.15-4.95,5.74-6.13c2.6-1.18,6.04-0.83,7.84,1.38
		c0.45,0.55,0.79,1.21,0.86,1.91c0.09,0.87-0.22,1.72-0.59,2.51c-2.18,4.64-6.34,8.05-11.54,8.39c0.61,2.52,2.68,4.38,6.03,3.83
		c2.79-0.46,5.88-3.89,8.04-5.59c1.81-1.43,8.04-7.2,10-8.42C364.38,52.97,366.52,52.53,366.76,53.46z M339.59,61.87
		c0.38-0.2,0.79-0.35,1.13-0.36c2.46-0.06,4.71-2.89,5.93-4.74c0.59-0.9,1.1-1.91,1.13-2.98c0.02-0.72-0.27-1.54-0.95-1.77
		c-0.77-0.26-1.53,0.36-2.11,0.92c-1.01,0.99-2.03,2-2.84,3.16c-0.65,0.93-1.29,1.97-1.72,3.08
		C339.81,60.06,339.59,60.96,339.59,61.87z"/>
	<path class="st0" d="M431.87,34.69c-1.22,4.24-4.71,7.56-7.7,10.63c-4,4.1-8.2,8-12.43,11.86c-8.44,7.7-16.97,15.29-24.5,23.9
		c10.1-1.51,20.07-0.63,29.84,2.6c1.43,0.47-1.73,2.04-2.79,1.69c-9.89-3.28-19.95-3.89-30.17-1.95c-0.44,0.08-2.11-0.15-1.39-1
		c8.66-10.21,18.75-18.95,28.57-27.99c5.09-4.69,11.33-9.62,15.12-15.45c3.56-5.48,2.75-11.56-5.14-11.68
		c-5.12-0.08-10.85,4.64-11.84,9.48c-0.24,1.19-3.77,1.75-3.5,0.44C408.4,25.26,436.14,19.79,431.87,34.69z"/>
	<path class="st0" d="M486.82,34.03c-0.32,7.82-5.54,16.23-9.62,22.7c-4.44,7.04-9.89,13.51-16.47,18.65
		c-4.65,3.62-10.84,7.98-16.89,8.77c-7.07,0.92-8.94-5.82-7.82-11.64c3.4-17.71,15.05-34.23,28.51-45.78
		c0.65-0.56,3.9-0.89,3.17-0.26c-9.61,8.24-17.42,18.28-22.76,29.78c-2.51,5.41-5.1,11.52-5.69,17.5c-0.59,6.04,2.21,9.37,8.85,7.73
		c3.01-0.74,6.36-3.55,8.84-5.41c9.74-7.32,16.94-17.58,22.16-28.48c2.28-4.75,5.8-11.41,3.71-16.75
		c-2.46-6.29-10.71-3.74-14.46-0.18c-2.08,1.98-3.95,4.17-6.02,6.17c-0.62,0.6-3.9,0.96-3.17,0.26c4.96-4.77,9.13-10.59,16.29-11.93
		C481.65,24.01,487.1,27.15,486.82,34.03z"/>
	<path class="st0" d="M528.54,34.69c-1.22,4.24-4.71,7.56-7.7,10.63c-4,4.1-8.2,8-12.43,11.86c-8.44,7.7-16.97,15.29-24.5,23.9
		c10.1-1.51,20.07-0.63,29.84,2.6c1.43,0.47-1.73,2.04-2.79,1.69c-9.89-3.28-19.95-3.89-30.17-1.95c-0.44,0.08-2.11-0.15-1.39-1
		c8.66-10.21,18.75-18.95,28.57-27.99c5.09-4.69,11.33-9.62,15.12-15.45c3.56-5.48,2.75-11.56-5.14-11.68
		c-5.12-0.08-10.85,4.64-11.84,9.48c-0.24,1.19-3.77,1.75-3.5,0.44C505.08,25.26,532.81,19.79,528.54,34.69z"/>
	<path class="st0" d="M583.49,34.03c-0.32,7.82-5.54,16.23-9.62,22.7c-4.44,7.04-9.89,13.51-16.47,18.65
		c-4.65,3.62-10.84,7.98-16.89,8.77c-7.07,0.92-8.94-5.82-7.82-11.64c3.4-17.71,15.05-34.23,28.51-45.78
		c0.65-0.56,3.9-0.89,3.17-0.26c-9.61,8.24-17.42,18.28-22.76,29.78c-2.51,5.41-5.1,11.52-5.69,17.5c-0.59,6.04,2.21,9.37,8.85,7.73
		c3.01-0.74,6.36-3.55,8.84-5.41c9.74-7.32,16.94-17.58,22.16-28.48c2.28-4.75,5.8-11.41,3.71-16.75
		c-2.46-6.29-10.71-3.74-14.46-0.18c-2.08,1.98-3.95,4.17-6.02,6.17c-0.62,0.6-3.9,0.96-3.17,0.26c4.96-4.77,9.13-10.59,16.29-11.93
		C578.32,24.01,583.77,27.15,583.49,34.03z"/>
</g>
</svg>
